<svg width="216" height="216" viewBox="0 0 216 216" fill="none" xmlns="http://www.w3.org/2000/svg">
<rect width="216" height="216" rx="80" fill="white"/>
<path d="M71.6341 164.122V169H66.7561V164.122H71.6341ZM71.6341 159.244V164.122H66.7561V159.244H71.6341ZM71.6341 154.366V159.244H66.7561V154.366H71.6341ZM71.6341 149.488V154.366H66.7561V149.488H71.6341ZM71.6341 144.61V149.488H66.7561V144.61H71.6341ZM71.6341 139.732V144.61H66.7561V139.732H71.6341ZM71.6341 134.854V139.732H66.7561V134.854H71.6341ZM71.6341 129.976V134.854H66.7561V129.976H71.6341ZM71.6341 125.098V129.976H66.7561V125.098H71.6341ZM71.6341 120.22V125.098H66.7561V120.22H71.6341ZM71.6341 115.341V120.22H66.7561V115.341H71.6341ZM71.6341 110.463V115.341H66.7561V110.463H71.6341ZM71.6341 105.585V110.463H66.7561V105.585H71.6341ZM71.6341 100.707V105.585H66.7561V100.707H71.6341ZM71.6341 95.8293V100.707H66.7561V95.8293H71.6341ZM76.5122 95.8293V100.707H71.6341V95.8293H76.5122ZM76.5122 100.707V105.585H71.6341V100.707H76.5122ZM76.5122 105.585V110.463H71.6341V105.585H76.5122ZM76.5122 110.463V115.341H71.6341V110.463H76.5122ZM76.5122 115.341V120.22H71.6341V115.341H76.5122ZM76.5122 120.22V125.098H71.6341V120.22H76.5122ZM76.5122 125.098V129.976H71.6341V125.098H76.5122ZM81.3902 129.976V134.854H76.5122V129.976H81.3902ZM81.3902 134.854V139.732H76.5122V134.854H81.3902ZM81.3902 139.732V144.61H76.5122V139.732H81.3902ZM81.3902 144.61V149.488H76.5122V144.61H81.3902ZM81.3902 149.488V154.366H76.5122V149.488H81.3902ZM81.3902 154.366V159.244H76.5122V154.366H81.3902ZM81.3902 159.244V164.122H76.5122V159.244H81.3902ZM81.3902 164.122V169H76.5122V164.122H81.3902ZM86.2683 164.122V169H81.3902V164.122H86.2683ZM91.1463 164.122V169H86.2683V164.122H91.1463ZM91.1463 159.244V164.122H86.2683V159.244H91.1463ZM91.1463 154.366V159.244H86.2683V154.366H91.1463ZM91.1463 149.488V154.366H86.2683V149.488H91.1463ZM91.1463 144.61V149.488H86.2683V144.61H91.1463ZM91.1463 139.732V144.61H86.2683V139.732H91.1463ZM91.1463 134.854V139.732H86.2683V134.854H91.1463ZM91.1463 129.976V134.854H86.2683V129.976H91.1463ZM86.2683 129.976V134.854H81.3902V129.976H86.2683ZM86.2683 125.098V129.976H81.3902V125.098H86.2683ZM86.2683 134.854V139.732H81.3902V134.854H86.2683ZM86.2683 139.732V144.61H81.3902V139.732H86.2683ZM86.2683 144.61V149.488H81.3902V144.61H86.2683ZM86.2683 149.488V154.366H81.3902V149.488H86.2683ZM86.2683 154.366V159.244H81.3902V154.366H86.2683ZM86.2683 159.244V164.122H81.3902V159.244H86.2683ZM76.5122 164.122V169H71.6341V164.122H76.5122ZM76.5122 159.244V164.122H71.6341V159.244H76.5122ZM76.5122 154.366V159.244H71.6341V154.366H76.5122ZM76.5122 149.488V154.366H71.6341V149.488H76.5122ZM76.5122 144.61V149.488H71.6341V144.61H76.5122ZM76.5122 139.732V144.61H71.6341V139.732H76.5122ZM76.5122 134.854V139.732H71.6341V134.854H76.5122ZM76.5122 129.976V134.854H71.6341V129.976H76.5122ZM71.6341 47.0488V51.9268H66.7561V47.0488H71.6341ZM71.6341 51.9268V56.8049H66.7561V51.9268H71.6341ZM71.6341 56.8049V61.6829H66.7561V56.8049H71.6341ZM71.6341 61.6829V66.561H66.7561V61.6829H71.6341ZM71.6341 66.561V71.439H66.7561V66.561H71.6341ZM71.6341 71.439V76.3171H66.7561V71.439H71.6341ZM71.6341 76.3171V81.1951H66.7561V76.3171H71.6341ZM71.6341 81.1951V86.0732H66.7561V81.1951H71.6341ZM71.6341 86.0732V90.9512H66.7561V86.0732H71.6341ZM71.6341 90.9512V95.8293H66.7561V90.9512H71.6341ZM86.2683 47.0488V51.9268H81.3902V47.0488H86.2683ZM86.2683 51.9268V56.8049H81.3902V51.9268H86.2683ZM86.2683 56.8049V61.6829H81.3902V56.8049H86.2683ZM86.2683 61.6829V66.561H81.3902V61.6829H86.2683ZM86.2683 66.561V71.439H81.3902V66.561H86.2683ZM86.2683 71.439V76.3171H81.3902V71.439H86.2683ZM86.2683 81.1951V86.0732H81.3902V81.1951H86.2683ZM86.2683 86.0732V90.9512H81.3902V86.0732H86.2683ZM86.2683 90.9512V95.8293H81.3902V90.9512H86.2683ZM86.2683 95.8293V100.707H81.3902V95.8293H86.2683ZM86.2683 100.707V105.585H81.3902V100.707H86.2683ZM86.2683 105.585V110.463H81.3902V105.585H86.2683ZM86.2683 110.463V115.341H81.3902V110.463H86.2683ZM91.1463 115.341V120.22H86.2683V115.341H91.1463ZM91.1463 120.22V125.098H86.2683V120.22H91.1463ZM91.1463 125.098V129.976H86.2683V125.098H91.1463ZM91.1463 110.463V115.341H86.2683V110.463H91.1463ZM91.1463 105.585V110.463H86.2683V105.585H91.1463ZM91.1463 100.707V105.585H86.2683V100.707H91.1463ZM91.1463 95.8293V100.707H86.2683V95.8293H91.1463ZM91.1463 90.9512V95.8293H86.2683V90.9512H91.1463ZM91.1463 86.0732V90.9512H86.2683V86.0732H91.1463ZM91.1463 81.1951V86.0732H86.2683V81.1951H91.1463ZM91.1463 76.3171V81.1951H86.2683V76.3171H91.1463ZM91.1463 71.439V76.3171H86.2683V71.439H91.1463ZM91.1463 66.561V71.439H86.2683V66.561H91.1463ZM86.2683 76.3171V81.1951H81.3902V76.3171H86.2683ZM91.1463 61.6829V66.561H86.2683V61.6829H91.1463ZM91.1463 56.8049V61.6829H86.2683V56.8049H91.1463ZM91.1463 51.9268V56.8049H86.2683V51.9268H91.1463ZM91.1463 47.0488V51.9268H86.2683V47.0488H91.1463ZM81.3902 47.0488V51.9268H76.5122V47.0488H81.3902ZM76.5122 47.0488V51.9268H71.6341V47.0488H76.5122ZM76.5122 51.9268V56.8049H71.6341V51.9268H76.5122ZM81.3902 51.9268V56.8049H76.5122V51.9268H81.3902ZM81.3902 56.8049V61.6829H76.5122V56.8049H81.3902ZM81.3902 61.6829V66.561H76.5122V61.6829H81.3902ZM81.3902 66.561V71.439H76.5122V66.561H81.3902ZM81.3902 71.439V76.3171H76.5122V71.439H81.3902ZM81.3902 76.3171V81.1951H76.5122V76.3171H81.3902ZM81.3902 81.1951V86.0732H76.5122V81.1951H81.3902ZM76.5122 86.0732V90.9512H71.6341V86.0732H76.5122ZM76.5122 90.9512V95.8293H71.6341V90.9512H76.5122ZM76.5122 81.1951V86.0732H71.6341V81.1951H76.5122ZM76.5122 76.3171V81.1951H71.6341V76.3171H76.5122ZM76.5122 71.439V76.3171H71.6341V71.439H76.5122ZM76.5122 66.561V71.439H71.6341V66.561H76.5122ZM76.5122 61.6829V66.561H71.6341V61.6829H76.5122ZM76.5122 56.8049V61.6829H71.6341V56.8049H76.5122ZM81.3902 86.0732V90.9512H76.5122V86.0732H81.3902ZM81.3902 90.9512V95.8293H76.5122V90.9512H81.3902ZM81.3902 95.8293V100.707H76.5122V95.8293H81.3902ZM81.3902 100.707V105.585H76.5122V100.707H81.3902ZM81.3902 105.585V110.463H76.5122V105.585H81.3902ZM81.3902 110.463V115.341H76.5122V110.463H81.3902ZM81.3902 115.341V120.22H76.5122V115.341H81.3902ZM81.3902 120.22V125.098H76.5122V120.22H81.3902ZM81.3902 125.098V129.976H76.5122V125.098H81.3902ZM86.2683 120.22V125.098H81.3902V120.22H86.2683ZM86.2683 115.341V120.22H81.3902V115.341H86.2683ZM130.171 47.0488V51.9268H125.293V47.0488H130.171ZM130.171 51.9268V56.8049H125.293V51.9268H130.171ZM130.171 56.8049V61.6829H125.293V56.8049H130.171ZM130.171 66.561V71.439H125.293V66.561H130.171ZM130.171 71.439V76.3171H125.293V71.439H130.171ZM130.171 76.3171V81.1951H125.293V76.3171H130.171ZM130.171 81.1951V86.0732H125.293V81.1951H130.171ZM130.171 86.0732V90.9512H125.293V86.0732H130.171ZM130.171 90.9512V95.8293H125.293V90.9512H130.171ZM130.171 95.8293V100.707H125.293V95.8293H130.171ZM135.049 100.707V105.585H130.171V100.707H135.049ZM135.049 105.585V110.463H130.171V105.585H135.049ZM135.049 110.463V115.341H130.171V110.463H135.049ZM135.049 115.341V120.22H130.171V115.341H135.049ZM135.049 120.22V125.098H130.171V120.22H135.049ZM135.049 125.098V129.976H130.171V125.098H135.049ZM139.927 125.098V129.976H135.049V125.098H139.927ZM139.927 129.976V134.854H135.049V129.976H139.927ZM139.927 134.854V139.732H135.049V134.854H139.927ZM139.927 139.732V144.61H135.049V139.732H139.927ZM139.927 144.61V149.488H135.049V144.61H139.927ZM139.927 149.488V154.366H135.049V149.488H139.927ZM139.927 154.366V159.244H135.049V154.366H139.927ZM139.927 159.244V164.122H135.049V159.244H139.927ZM139.927 164.122V169H135.049V164.122H139.927ZM135.049 164.122V169H130.171V164.122H135.049ZM135.049 159.244V164.122H130.171V159.244H135.049ZM135.049 154.366V159.244H130.171V154.366H135.049ZM135.049 149.488V154.366H130.171V149.488H135.049ZM135.049 144.61V149.488H130.171V144.61H135.049ZM135.049 139.732V144.61H130.171V139.732H135.049ZM135.049 134.854V139.732H130.171V134.854H135.049ZM130.171 134.854V139.732H125.293V134.854H130.171ZM130.171 129.976V134.854H125.293V129.976H130.171ZM135.049 129.976V134.854H130.171V129.976H135.049ZM130.171 100.707V105.585H125.293V100.707H130.171ZM130.171 105.585V110.463H125.293V105.585H130.171ZM130.171 110.463V115.341H125.293V110.463H130.171ZM130.171 115.341V120.22H125.293V115.341H130.171ZM130.171 120.22V125.098H125.293V120.22H130.171ZM130.171 125.098V129.976H125.293V125.098H130.171ZM130.171 61.6829V66.561H125.293V61.6829H130.171ZM130.171 139.732V144.61H125.293V139.732H130.171ZM130.171 144.61V149.488H125.293V144.61H130.171ZM130.171 149.488V154.366H125.293V149.488H130.171ZM130.171 154.366V159.244H125.293V154.366H130.171ZM130.171 159.244V164.122H125.293V159.244H130.171ZM130.171 164.122V169H125.293V164.122H130.171ZM144.805 164.122V169H139.927V164.122H144.805ZM149.683 164.122V169H144.805V164.122H149.683ZM149.683 159.244V164.122H144.805V159.244H149.683ZM149.683 154.366V159.244H144.805V154.366H149.683ZM149.683 149.488V154.366H144.805V149.488H149.683ZM149.683 144.61V149.488H144.805V144.61H149.683ZM149.683 139.732V144.61H144.805V139.732H149.683ZM149.683 134.854V139.732H144.805V134.854H149.683ZM149.683 129.976V134.854H144.805V129.976H149.683ZM149.683 125.098V129.976H144.805V125.098H149.683ZM149.683 120.22V125.098H144.805V120.22H149.683ZM149.683 115.341V120.22H144.805V115.341H149.683ZM149.683 110.463V115.341H144.805V110.463H149.683ZM149.683 105.585V110.463H144.805V105.585H149.683ZM149.683 100.707V105.585H144.805V100.707H149.683ZM149.683 95.8293V100.707H144.805V95.8293H149.683ZM149.683 90.9512V95.8293H144.805V90.9512H149.683ZM149.683 86.0732V90.9512H144.805V86.0732H149.683ZM149.683 81.1951V86.0732H144.805V81.1951H149.683ZM149.683 76.3171V81.1951H144.805V76.3171H149.683ZM135.049 47.0488V51.9268H130.171V47.0488H135.049ZM139.927 47.0488V51.9268H135.049V47.0488H139.927ZM144.805 47.0488V51.9268H139.927V47.0488H144.805ZM149.683 47.0488V51.9268H144.805V47.0488H149.683ZM149.683 51.9268V56.8049H144.805V51.9268H149.683ZM149.683 56.8049V61.6829H144.805V56.8049H149.683ZM149.683 61.6829V66.561H144.805V61.6829H149.683ZM149.683 66.561V71.439H144.805V66.561H149.683ZM149.683 71.439V76.3171H144.805V71.439H149.683ZM135.049 51.9268V56.8049H130.171V51.9268H135.049ZM139.927 51.9268V56.8049H135.049V51.9268H139.927ZM144.805 51.9268V56.8049H139.927V51.9268H144.805ZM144.805 56.8049V61.6829H139.927V56.8049H144.805ZM144.805 61.6829V66.561H139.927V61.6829H144.805ZM144.805 66.561V71.439H139.927V66.561H144.805ZM144.805 71.439V76.3171H139.927V71.439H144.805ZM139.927 71.439V76.3171H135.049V71.439H139.927ZM139.927 66.561V71.439H135.049V66.561H139.927ZM139.927 61.6829V66.561H135.049V61.6829H139.927ZM139.927 56.8049V61.6829H135.049V56.8049H139.927ZM135.049 56.8049V61.6829H130.171V56.8049H135.049ZM135.049 61.6829V66.561H130.171V61.6829H135.049ZM135.049 66.561V71.439H130.171V66.561H135.049ZM135.049 71.439V76.3171H130.171V71.439H135.049ZM135.049 76.3171V81.1951H130.171V76.3171H135.049ZM135.049 81.1951V86.0732H130.171V81.1951H135.049ZM135.049 86.0732V90.9512H130.171V86.0732H135.049ZM135.049 90.9512V95.8293H130.171V90.9512H135.049ZM139.927 90.9512V95.8293H135.049V90.9512H139.927ZM139.927 86.0732V90.9512H135.049V86.0732H139.927ZM139.927 81.1951V86.0732H135.049V81.1951H139.927ZM139.927 76.3171V81.1951H135.049V76.3171H139.927ZM144.805 76.3171V81.1951H139.927V76.3171H144.805ZM144.805 81.1951V86.0732H139.927V81.1951H144.805ZM144.805 86.0732V90.9512H139.927V86.0732H144.805ZM144.805 90.9512V95.8293H139.927V90.9512H144.805ZM144.805 95.8293V100.707H139.927V95.8293H144.805ZM144.805 100.707V105.585H139.927V100.707H144.805ZM144.805 105.585V110.463H139.927V105.585H144.805ZM144.805 110.463V115.341H139.927V110.463H144.805ZM144.805 115.341V120.22H139.927V115.341H144.805ZM144.805 120.22V125.098H139.927V120.22H144.805ZM139.927 120.22V125.098H135.049V120.22H139.927ZM139.927 115.341V120.22H135.049V115.341H139.927ZM139.927 110.463V115.341H135.049V110.463H139.927ZM139.927 105.585V110.463H135.049V105.585H139.927ZM139.927 100.707V105.585H135.049V100.707H139.927ZM135.049 95.8293V100.707H130.171V95.8293H135.049ZM139.927 95.8293V100.707H135.049V95.8293H139.927ZM144.805 125.098V129.976H139.927V125.098H144.805ZM144.805 129.976V134.854H139.927V129.976H144.805ZM144.805 134.854V139.732H139.927V134.854H144.805ZM144.805 139.732V144.61H139.927V139.732H144.805ZM144.805 144.61V149.488H139.927V144.61H144.805ZM144.805 149.488V154.366H139.927V149.488H144.805ZM144.805 154.366V159.244H139.927V154.366H144.805ZM144.805 159.244V164.122H139.927V159.244H144.805ZM96.0244 105.585V110.463H91.1463V105.585H96.0244ZM100.902 105.585V110.463H96.0244V105.585H100.902ZM105.78 105.585V110.463H100.902V105.585H105.78ZM110.659 105.585V110.463H105.78V105.585H110.659ZM115.537 105.585V110.463H110.659V105.585H115.537ZM120.415 105.585V110.463H115.537V105.585H120.415ZM125.293 105.585V110.463H120.415V105.585H125.293ZM125.293 110.463V115.341H120.415V110.463H125.293ZM120.415 110.463V115.341H115.537V110.463H120.415ZM115.537 110.463V115.341H110.659V110.463H115.537ZM110.659 110.463V115.341H105.78V110.463H110.659ZM105.78 110.463V115.341H100.902V110.463H105.78ZM100.902 110.463V115.341H96.0244V110.463H100.902ZM96.0244 110.463V115.341H91.1463V110.463H96.0244ZM96.0244 95.8293V100.707H91.1463V95.8293H96.0244ZM100.902 95.8293V100.707H96.0244V95.8293H100.902ZM105.78 95.8293V100.707H100.902V95.8293H105.78ZM110.659 95.8293V100.707H105.78V95.8293H110.659ZM115.537 95.8293V100.707H110.659V95.8293H115.537ZM120.415 95.8293V100.707H115.537V95.8293H120.415ZM125.293 95.8293V100.707H120.415V95.8293H125.293ZM125.293 100.707V105.585H120.415V100.707H125.293ZM120.415 100.707V105.585H115.537V100.707H120.415ZM115.537 100.707V105.585H110.659V100.707H115.537ZM110.659 100.707V105.585H105.78V100.707H110.659ZM105.78 100.707V105.585H100.902V100.707H105.78ZM96.0244 115.341V120.22H91.1463V115.341H96.0244ZM100.902 115.341V120.22H96.0244V115.341H100.902ZM105.78 115.341V120.22H100.902V115.341H105.78ZM110.659 115.341V120.22H105.78V115.341H110.659ZM115.537 115.341V120.22H110.659V115.341H115.537ZM120.415 115.341V120.22H115.537V115.341H120.415ZM125.293 115.341V120.22H120.415V115.341H125.293ZM100.902 100.707V105.585H96.0244V100.707H100.902ZM96.0244 100.707V105.585H91.1463V100.707H96.0244Z" fill="#4A99EE"/>
</svg>
